<svg width="13" height="11" viewBox="0 0 13 11" fill="none" xmlns="http://www.w3.org/2000/svg">
<g id="Flash Dashboard">
<g id="Mask group">
<g id="Group 1309">
<g id="Group 1319">
<g id="Group 4">
<g id="Group">
<path id="Vector" d="M10.5538 0.400391H2.24615C1.75652 0.400391 1.28694 0.594895 0.94072 0.941116C0.594499 1.28734 0.399994 1.75691 0.399994 2.24654V6.86193C0.399994 7.35156 0.594499 7.82114 0.94072 8.16736C1.28694 8.51358 1.75652 8.70808 2.24615 8.70808H7.32307L10.0923 10.5542V8.70808H10.5538C11.0435 8.70808 11.513 8.51358 11.8593 8.16736C12.2055 7.82114 12.4 7.35156 12.4 6.86193V2.24654C12.4 1.75691 12.2055 1.28734 11.8593 0.941116C11.513 0.594895 11.0435 0.400391 10.5538 0.400391Z" stroke="black" stroke-width="0.8" stroke-linecap="round" stroke-linejoin="round"/>
<g id="Vector_2">
<path d="M3.49558 4.34258C3.58214 4.25603 3.63076 4.13863 3.63076 4.01623C3.63076 3.89382 3.58214 3.77642 3.49558 3.68987C3.40903 3.60331 3.29163 3.55469 3.16923 3.55469C3.04682 3.55469 2.92942 3.60331 2.84287 3.68987C2.75631 3.77642 2.70769 3.89382 2.70769 4.01623C2.70769 4.13863 2.75631 4.25603 2.84287 4.34258C2.92942 4.42914 3.04682 4.47776 3.16923 4.47776C3.29163 4.47776 3.40903 4.42914 3.49558 4.34258Z" stroke="black" stroke-width="0.7" stroke-linecap="round" stroke-linejoin="round"/>
<path d="M6.26481 4.34258C6.35137 4.25603 6.4 4.13863 6.4 4.01623C6.4 3.89382 6.35137 3.77642 6.26481 3.68987C6.17826 3.60331 6.06086 3.55469 5.93846 3.55469C5.81605 3.55469 5.69865 3.60331 5.6121 3.68987C5.52554 3.77642 5.47692 3.89382 5.47692 4.01623C5.47692 4.13863 5.52554 4.25603 5.6121 4.34258C5.69865 4.42914 5.81605 4.47776 5.93846 4.47776C6.06086 4.47776 6.17826 4.42914 6.26481 4.34258Z" stroke="black" stroke-width="0.7" stroke-linecap="round" stroke-linejoin="round"/>
<path d="M9.03404 4.34258C9.1206 4.25603 9.16923 4.13863 9.16923 4.01623C9.16923 3.89382 9.1206 3.77642 9.03404 3.68987C8.94749 3.60331 8.83009 3.55469 8.70769 3.55469C8.58528 3.55469 8.46789 3.60331 8.38133 3.68987C8.29477 3.77642 8.24615 3.89382 8.24615 4.01623C8.24615 4.13863 8.29477 4.25603 8.38133 4.34258C8.46789 4.42914 8.58528 4.47776 8.70769 4.47776C8.83009 4.47776 8.94749 4.42914 9.03404 4.34258Z" stroke="black" stroke-width="0.7" stroke-linecap="round" stroke-linejoin="round"/>
</g>
</g>
</g>
</g>
</g>
</g>
</g>
</svg>
