<svg width="12" height="12" viewBox="0 0 12 12" fill="none" xmlns="http://www.w3.org/2000/svg">
<g id="Flash Dashboard">
<g id="Mask group">
<g id="Group 1309">
<g id="Group 1319">
<g id="Group 6">
<g id="Group 1310">
<g id="Group 3">
<g id="Group 1311">
<path id="Vector" d="M0.602502 6.60066H1.20256V10.8001C1.20256 11.4601 1.74261 12 2.40267 12H9.60333C10.2634 12 10.8034 11.4601 10.8034 10.8001V6.60066H11.4035C11.6435 6.60066 11.8655 6.45668 11.9555 6.22871C12.0456 6.00673 11.9976 5.74876 11.8235 5.57479L6.42904 0.175445C6.37353 0.11983 6.30759 0.0757065 6.235 0.0456013C6.16241 0.0154961 6.08459 0 6.006 0C5.92741 0 5.8496 0.0154961 5.777 0.0456013C5.70441 0.0757065 5.63847 0.11983 5.58296 0.175445L0.176463 5.57479C0.00244717 5.74876 -0.0455573 6.00673 0.044451 6.22871C0.134459 6.45068 0.35648 6.60066 0.596502 6.60066H0.602502ZM6.003 1.44729L9.60333 5.04685V10.8001H2.40267V5.04685L6.003 1.44729Z" fill="black"/>
</g>
</g>
</g>
</g>
</g>
</g>
</g>
</g>
</svg>
