<svg xmlns="http://www.w3.org/2000/svg" viewBox="0 0 253 10" fill="none">
<!-- The rough band that slices through "The Problem", from Vector 3624 of frame
     1886:87160 in the Flash 2.0 file (P9oblWIcJSnr7hbzGaMZG8).

     It is not a strikethrough rule. Figma fills it with the frame's own background
     (#F6F6F6), so it works by painting the page ground back over the middle of the
     letterforms, leaving a torn look rather than a line drawn on top. Hence
     currentColor here: the element sets `color` to the section's background, so the
     effect follows the ground if that ever changes.

     NOTE: no "- -" sequence may appear in this comment. It is illegal inside an XML
     comment and silently makes the file unparseable. -->
<path id="Vector 3624" d="M2.40984 0.050849C3.82758 -0.0794148 5.68601 0.0598688 7.09839 0.251044C7.54103 0.310336 7.3169 0.575377 7.62245 0.62824C8.22007 0.731291 8.77682 0.601305 9.36739 0.724065C9.56311 0.766045 9.31948 1.18587 9.5247 1.22028C10.6493 1.40582 11.7132 1.29888 12.8524 1.38812C18.4639 1.82843 23.9799 1.98602 29.66 2.17731C31.5329 2.24002 33.8096 2.62103 35.7441 2.45441C35.97 2.43458 35.8353 2.06608 35.8783 2.03571C36.5522 1.57075 36.3281 2.31467 36.7681 2.41351C38.5145 2.80377 40.4564 2.83771 42.1371 2.69549C42.8521 2.63391 42.1352 1.90198 42.8551 2.3128C42.9051 2.34056 42.7237 2.73188 42.9198 2.77362C43.3645 2.86749 44.2081 2.79755 44.5528 2.82855C45.217 2.89028 45.3269 2.88635 45.9551 2.89081C46.8139 2.90031 47.8354 3.09483 48.7568 3.00616C48.9535 2.98607 48.6931 2.58493 49.0068 2.51666C49.3208 2.44851 50.1513 2.48252 50.4313 2.57709C50.7114 2.6717 50.5922 2.98699 50.6417 3.05926C51.0495 3.66925 52.0102 2.82442 52.1338 2.80353C54.3876 2.44753 56.3204 2.9288 58.436 2.92743C60.0421 2.92536 61.7595 2.76648 63.2877 2.78827C65.1084 2.81578 66.6515 3.03315 68.4202 2.99579C68.6069 2.9923 68.3881 2.52065 68.6161 2.51544C71.0384 2.46056 73.4437 2.51197 75.8555 2.83038C76.0974 2.86273 75.7856 3.27684 76.0273 3.33392C77.5068 3.67424 79.8477 4.49179 80.7265 2.68878C81.7286 2.75918 82.9453 2.83193 83.8419 3.19537C84.4199 3.42929 83.8585 3.88042 84.5686 3.68792C84.7288 3.64503 84.5205 3.24995 84.7607 3.21551C85.7719 3.07088 86.8767 3.1993 87.877 2.99518C88.0805 2.95273 88.025 2.59872 88.0826 2.53497C88.5672 2.01871 89.3737 2.87213 89.5496 2.93414C90.8886 3.39658 91.8664 3.2146 93.1138 3.22589C93.4032 3.22871 93.0611 2.7532 93.3396 2.73883C94.7842 2.67068 96.2807 2.71155 97.6952 2.92254C98.0098 2.97062 97.7205 3.37567 97.8709 3.41937C98.5338 3.60712 98.6808 2.84209 99.3166 3.00738C99.4507 3.04125 99.3751 3.388 99.3996 3.42608C99.7823 4.02389 100.115 3.17684 100.213 3.15814C101.458 2.90261 102.254 3.78689 103.457 3.66168C103.601 3.6458 103.276 3.20706 103.681 3.18927C106.376 3.06815 109.226 3.18867 111.893 3.53961C112.308 3.59358 112.012 3.92317 112.038 3.9638C112.463 4.59864 112.738 3.74803 112.874 3.716C113.94 3.48541 114.937 4.19874 115.662 3.1856C120.18 3.5372 124.677 2.96827 129.158 3.87591C129.215 3.88642 129.113 4.30535 129.227 4.32452C130.595 4.55974 130.332 3.90865 131.238 3.11236C131.466 2.91241 132.16 3.8738 132.221 3.94427C132.445 4.20396 132.213 4.8272 132.288 4.87749C132.908 5.27241 132.807 3.21129 133.643 3.21063C133.669 3.21407 133.559 3.59344 133.63 3.63116C133.848 3.74958 134.064 3.59883 134.277 3.72943C134.765 4.03161 134.939 5.03313 135.685 4.45025C135.78 4.3746 135.635 3.20545 136.382 3.26068C136.68 3.28369 137.997 3.26365 138.366 3.33941C138.735 3.41509 138.482 3.79185 138.508 3.80816C139.502 4.30636 139.125 4.51284 139.623 5.25042C140.121 5.98522 139.983 4.23265 140.186 4.03704C140.389 3.84199 141.117 4.25303 141.296 4.39593C141.475 4.53888 141.252 4.77829 141.411 4.85918C142.466 5.38773 141.874 3.98928 142.222 3.71112C143.042 3.05249 143.68 4.35219 144.43 4.47955C144.633 4.51394 144.468 4.21792 144.648 4.19024C145.364 4.08452 145.795 4.49006 146.609 4.11822C146.743 4.05762 147.401 3.27621 147.827 3.84967C147.888 3.93236 147.716 4.25624 148.021 4.32879C148.477 4.43767 149.299 4.50846 149.789 4.4002C150.15 4.3201 149.736 3.78642 150.191 3.9522C150.393 4.02623 150.018 4.33844 150.399 4.45147C150.777 4.56447 151.744 4.55075 152.112 4.53997C152.479 4.52895 152.278 4.12413 152.308 4.09686C152.487 3.94063 153.192 3.74542 153.254 3.74591C156.396 3.69649 159.293 4.37886 162.352 4.15301C162.593 4.13587 162.433 3.70898 162.469 3.70196C163.291 3.5231 162.643 4.65811 163.217 5.03802C163.134 4.17173 163.473 4.32858 164.052 4.23358C164.331 4.18709 164.179 3.85165 164.205 3.81732C164.618 3.30783 164.906 3.9659 164.98 4.10052C165.254 4.59572 165.553 4.01061 165.739 4.34161C165.925 4.67013 165.497 5.15717 166.052 5.15093C166.207 4.84083 165.795 4.03044 166.217 3.8991C167.807 3.40231 170.776 4.03813 172.055 4.10418C173.331 4.17017 173.743 4.11296 174.487 4.22503C175.83 4.42767 175.338 3.82641 176.172 3.5512C177.009 3.27603 176.602 4.75539 176.722 5.07342C176.84 5.3913 176.969 5.06407 177.116 5.23882C177.262 5.41353 176.945 5.62976 177.29 5.69536C177.634 5.7609 178.576 5.19537 178.698 4.86285C178.956 4.15836 178.532 3.41897 179.443 3.67877C179.495 3.69419 179.325 4.08318 179.526 4.12249C181.12 4.42195 182.776 4.44052 184.368 4.70538C184.587 4.7424 184.391 5.17514 184.518 5.20159C185.845 5.47838 185.371 4.74872 186.098 3.93817C185.935 5.01684 186.337 5.67679 187.344 5.68316C187.95 5.68736 187.845 5.21625 188.237 4.88421C188.355 4.78411 188.783 5.1076 188.86 4.88604C189.116 4.1618 188.713 3.35106 189.751 3.67388C189.797 3.68923 189.652 4.08567 189.809 4.10967C190.827 4.26682 190.948 3.50928 192.048 3.41754C192.91 3.34555 194.444 3.80749 195.425 3.88262C195.405 5.09537 196.332 4.81767 196.708 3.9815C197.345 4.01573 198.033 3.96846 198.649 4.08404C198.861 4.12344 198.721 4.47457 198.748 4.5125C199.158 5.10765 199.435 4.29415 199.572 4.26226C201.063 3.95224 202.277 4.56881 203.699 3.96624C203.75 3.94454 203.831 3.10213 204.212 3.71722C204.236 3.75962 203.767 4.1429 204.436 4.17254C205.105 4.20225 206.366 4.65384 207.295 4.26348C207.52 4.16951 208.089 3.48564 208.545 4.01995C208.606 4.09251 208.539 4.33411 208.627 4.46856C208.911 4.89695 209.066 4.04549 209.399 4.76885C209.733 5.49219 210.426 6.03391 211.363 5.53484C211.393 5.52033 211.615 4.84546 211.909 4.85613C212.38 4.87375 213.048 5.01434 213.539 5.00994C213.774 5.00759 213.623 4.58853 213.664 4.58086C215.245 4.34604 216.37 4.71963 218.064 4.88177C218.375 4.91232 219.267 4.34086 219.868 4.79266C220.528 5.28723 219.85 7.34456 221.367 6.85442C221.979 6.65837 222.753 4.04826 223.853 5.40056C225.985 5.06547 227.958 5.75757 230.096 5.2791C230.192 5.25791 230.496 4.52945 230.723 4.53936C231.058 4.55549 231.242 4.89596 231.482 4.91839C232.486 5.02094 233.405 4.72965 234.374 4.77496C234.741 4.79142 234.613 5.14346 235.051 5.16314C235.489 5.18249 235.781 4.71891 236.375 4.9428C236.824 5.11346 237.272 6.06099 237.867 6.17144C237.89 5.2368 238.299 5.25605 239.026 5.00933C239.165 4.96146 239.015 4.63616 239.081 4.59673C239.35 4.42907 239.599 4.69868 239.855 4.51617C239.917 4.47233 239.92 4.15315 239.97 4.0993C240.402 3.62924 241.113 4.34721 241.236 4.47222C241.704 4.94698 241.923 4.53185 242.282 4.7188C242.64 4.90574 242.104 5.13942 242.523 5.25286C243.391 5.48749 244.507 5.43594 245.389 5.45061C245.74 5.45449 245.5 5.02843 245.551 5.0191C246.278 4.91103 247.014 5.36424 247.417 4.51556C247.922 6.70994 247.856 4.30271 248.896 4.742C248.978 4.77753 249.082 5.81523 248.767 5.96758C248.453 6.11978 247.976 5.79541 247.54 6.03289C247.436 6.08862 246.845 7.06101 246.764 7.11992C246.131 7.58027 246.042 6.02956 246.008 5.94439C245.629 5.02523 244.905 6.0728 244.715 6.14519C243.844 6.47687 243.103 6.25878 242.374 6.49553C241.898 6.64854 241.851 7.66432 241.477 7.63322C240.233 7.53046 239.798 6.11344 238.626 7.34209C238.375 7.60413 238.624 8.71434 237.724 7.84135C237.667 7.78632 236.998 6.98769 236.612 7.49284C236.563 7.55653 236.565 7.88009 236.501 7.90727C236.072 8.08308 235.786 7.82532 235.318 7.94877C234.851 8.07223 234.289 8.25627 233.756 8.14653C233.434 8.0809 233.022 7.47808 232.868 7.33049C232.433 6.90533 231.968 7.60241 231.698 7.08757C231.427 6.57014 231.958 5.78433 231.246 5.45C231.219 6.29062 231.159 7.15343 231.116 7.99882C229.556 7.96922 228.021 7.6974 226.456 7.73454C226.262 7.73999 226.46 8.19191 226.252 8.20939C225.374 8.28119 224.608 7.95903 223.697 8.08732C222.993 8.18836 222.22 8.66685 221.483 8.78739C221.033 7.82549 219.94 8.15203 219.146 8.06413C218.868 8.03376 218.886 7.77685 218.688 7.69304C217.942 7.38306 218.292 8.23309 218.087 8.36686C217.209 8.93778 217.134 7.01379 216.099 7.06132C216.044 7.06319 215.374 8.08876 215.282 8.15263C214.695 8.56909 215.185 7.79567 214.817 7.71989C214.147 7.58142 213.681 7.33649 212.895 7.63688C212.666 7.72586 212.115 8.36509 211.67 7.87065C211.612 7.8059 211.644 7.46692 211.597 7.44707C210.743 7.11615 210.721 8.18129 210.233 8.54203C209.745 8.90269 208.992 8.16741 208.838 7.95549C208.437 7.40727 209.146 7.7212 209.168 7.6674C209.423 7.02717 208.873 7.1374 208.453 7.0833C208.393 6.03891 207.805 6.1016 208.018 7.03142C208.042 7.13298 208.369 7.03558 208.453 7.0833C208.085 8.10799 207.44 8.23922 206.727 7.28166C206.393 6.83287 206.709 6.3096 205.695 6.50102C205.235 6.58744 205.413 7.30655 205.007 7.50261C204.08 7.94993 202.875 7.27912 201.919 7.38481C201.572 7.42318 201.91 7.81682 201.672 7.85661C201.043 7.96343 200.488 7.66808 199.856 7.81938C199.799 7.83359 199.939 8.24565 199.742 8.2509C198.252 8.29875 196.955 8.03482 195.399 8.02751C194.648 8.02416 193.304 8.25142 192.525 8.20573C191.176 8.12897 189.515 7.52977 188.362 7.67534C187.611 7.76851 187.776 8.18066 187.453 8.46147C186.832 9.00579 185.731 8.03078 185.583 7.8798C185.578 7.87481 186.225 7.77765 185.88 7.56608C185.679 7.12525 185.59 7.87789 185.583 7.8798C185.486 7.78227 184.193 7.68871 183.936 7.7675C183.797 7.81055 183.875 8.20104 183.802 8.21611C182.074 8.56555 180.343 8.6648 178.59 8.48222C178.559 8.47433 178.605 8.03755 178.533 8.02446C177.518 7.83025 176.868 8.36457 176.031 8.6818C175.194 8.99889 174.531 8.89269 174.035 8.14286C173.404 8.23727 172.498 7.90578 171.977 7.70463C171.455 7.50349 171.383 8.35372 171.337 8.37052C169.906 8.9085 169.079 8.42185 167.595 8.34611C166.889 8.30865 165.49 8.43197 164.726 8.52494C164.122 8.59984 163.758 8.40059 163.202 8.528C163.126 8.54501 163.203 8.92357 163.18 8.93815C162.559 9.39108 162.857 8.46562 162.729 8.30033C162.264 7.69927 161.977 7.37915 161.182 7.66191C160.998 7.72666 160.464 9.0592 160.13 9.13712C159.695 9.236 159.859 8.75837 159.404 8.87406C159.365 8.88353 159.373 9.17819 159.092 9.1652C157.788 9.10877 156.367 8.93731 155.012 8.96684C154.827 8.96974 155.064 9.43712 154.797 9.44901C153.542 9.50442 152.166 9.48712 150.944 9.26835C150.643 9.21303 150.832 8.88578 150.766 8.78861C150.365 8.20069 149.796 9.05493 149.703 9.07121C147.464 9.48171 145.751 8.70864 143.47 9.0767C143.346 9.09831 142.39 10.0141 141.963 9.22868C141.934 9.17642 141.512 8.37289 141.139 8.92228C141.116 8.95665 141.379 9.37033 140.92 9.32816C140.461 9.28609 139.723 9.56234 139.092 9.10783C138.892 8.96465 138.421 8.16309 137.825 8.80204C137.786 8.84665 136.867 10.2914 136.538 9.29459C136.485 9.13051 136.541 8.07566 135.83 8.6165C135.694 8.72135 135.941 8.95663 135.583 9.10355C135.035 9.32999 134.308 9.04747 133.634 9.51737C133.517 9.60056 133.017 10.3165 132.615 9.77311C132.552 9.688 132.672 9.33584 132.46 9.29643C131.452 9.10738 130.397 9.34294 129.373 9.09928C129.011 9.01367 129.196 8.44435 128.818 8.29179C128.44 8.13928 127.679 7.99257 127.284 8.25273C126.888 8.513 127.32 9.42035 126.728 9.49296C124.152 9.8083 121.601 9.27602 119.029 9.19816C118.648 9.18653 118.964 9.51121 118.402 9.51737C116.329 9.54153 112.751 9.84595 110.953 9.15604C109.512 8.60347 111.325 8.18279 110.224 7.95793C109.693 7.85066 109.118 8.90555 108.99 8.93876C107.737 9.27611 106.866 8.80882 105.739 8.95219C105.506 8.98194 105.734 9.40949 105.536 9.43009C104.859 9.50424 104.147 9.3134 103.5 9.3483C103.21 9.36495 103.264 9.6915 102.997 9.6663C102.358 9.60975 101.793 9.47249 101.17 9.16642C101.113 9.13853 101.496 8.73231 101.023 8.7172C100.258 8.69391 99.308 8.39197 98.4277 8.70378C98.1665 8.79757 98.1563 9.5439 97.5948 9.02848C97.4771 8.92083 97.6273 8.02466 96.9733 8.79899C96.8633 8.92767 95.7646 9.9721 95.2255 9.29887C95.0832 9.12168 94.7202 8.38833 94.4061 8.50358C94.3635 8.52197 94.5341 8.92285 94.2739 8.96195C93.3566 9.09279 92.3952 9.05002 91.4528 9.17558C91.2011 9.2099 91.576 9.62473 91.2009 9.66263C90.1695 9.76749 88.8818 9.66186 87.8732 9.53202C87.5013 9.48336 87.7584 9.13973 87.7313 9.10233C87.2962 8.49408 87.0389 9.31508 86.8945 9.36295C85.9964 9.6496 85.3125 9.26395 84.4846 9.366C84.2562 9.39313 84.4182 9.78459 84.3727 9.81949C83.901 10.1605 84.2524 9.45754 83.9538 9.38004C83.1175 9.16062 82.1851 9.19208 81.3393 9.2421C81.0286 9.26105 81.3778 9.71496 81.099 9.72672C79.4488 9.80494 77.7333 9.7615 76.1228 9.51127C75.8196 9.46333 76.0104 9.11381 75.9472 9.03397C75.5116 8.47545 74.8732 9.23728 74.7263 9.30985C74.0584 9.64121 73.799 9.33212 73.2091 9.38981C70.3278 9.67705 66.77 9.47234 64.0501 9.34586C60.5059 9.18309 57.7556 8.85059 54.3758 8.93693C54.161 8.94198 54.3776 9.40695 54.1924 9.41727C51.8017 9.52936 49.448 9.34767 47.0524 9.48197C46.8559 9.49217 47.1392 9.93296 46.8237 9.96415C46.1765 10.0312 45.3567 10.0072 44.7024 9.86649C44.3832 9.79868 44.8113 9.42043 44.4901 9.3599C43.742 9.21809 42.9402 9.1867 42.1718 9.25736C41.8448 9.2884 42.3382 9.73922 41.9132 9.74442C39.0181 9.78915 36.1749 9.86679 33.2493 9.283C33.0487 9.2429 32.8727 8.32665 32.4463 8.50236C32.4142 8.75664 32.4159 9.05576 32.4019 9.32755C28.1875 9.47396 24.016 9.15633 19.7897 9.10722C19.6115 9.10525 19.9195 9.59073 19.5745 9.58939C17.5778 9.58222 15.6389 9.71671 13.5965 9.23417C13.3939 9.18698 13.4979 8.33291 12.9007 8.46208C12.7954 8.48565 11.896 8.59955 11.6634 8.78495C11.6318 8.81292 11.7959 9.21156 11.5061 9.22318C9.82185 9.28372 8.05685 9.19271 6.37552 8.94914C6.10416 8.90906 6.39314 8.48454 6.19987 8.45231C4.8289 8.22696 3.33768 8.54967 2.02765 8.16423C1.15077 7.9047 1.47541 7.17087 1.00945 6.44853C0.943543 6.34662 0.40055 6.33047 0.37247 5.91021C0.30038 4.8534 0.563389 3.69621 0.45547 2.56976C0.43267 2.32713 -0.294539 2.58846 0.136015 2.00214C0.166094 1.9629 0.693324 1.7683 0.823181 1.5694C0.913591 1.43188 0.750668 1.00447 0.935135 0.828434C1.11959 0.652564 1.32227 1.01084 1.62809 0.80402C1.93377 0.594636 1.79936 0.108407 2.40984 0.050849ZM169.63 6.80559C169.147 6.39728 169.076 7.89275 169.598 7.53496C169.623 7.51589 169.654 6.82562 169.63 6.80559ZM228.03 6.56938C227.399 5.90977 226.967 6.87966 227.412 7.38908C227.857 7.89795 228.222 6.76934 228.03 6.56938ZM234.573 6.08782C233.836 5.56775 233.72 7.68839 234.51 7.25969C234.556 7.23546 234.617 6.11802 234.573 6.08782ZM3.17035 6.24285C3.16369 6.22299 2.77337 6.20363 2.76404 6.22331C2.5562 6.69827 3.33669 6.73665 3.17035 6.24285ZM241.067 5.56353C240.836 5.27666 240.174 5.60781 240.46 5.96453C240.69 6.25149 241.353 5.92037 241.067 5.56353ZM144.45 5.20952C144.443 5.18724 144.163 5.16717 144.169 5.29314C144.188 5.69886 144.577 5.58436 144.45 5.20952ZM252.103 5.53911C250.472 5.45929 249.484 3.70754 251.259 3.90521C251.581 3.94097 250.566 4.46383 250.976 4.62176C251.725 4.90948 252.222 3.8096 252.986 4.39898C253.124 4.50686 252.196 5.54756 252.1 5.54155C252.101 5.54074 252.102 5.53993 252.103 5.53911ZM169.352 5.00933C169.342 4.98955 168.955 4.9708 168.945 4.99041C168.735 5.46518 169.516 5.50323 169.352 5.00933ZM128.122 4.28484C128.1 4.2427 127.201 4.20329 127.172 4.24212C126.703 5.0185 128.52 5.10048 128.122 4.28484ZM195.441 3.91497C195.863 3.43735 196.369 3.38112 196.706 3.98089C196.286 3.94905 195.863 3.94436 195.441 3.91497Z" fill="currentColor"/>
</svg>
